<mxfile host="Electron" modified="2024-08-31T13:32:56.328Z" agent="Mozilla/5.0 (Macintosh; Intel Mac OS X 10_15_7) AppleWebKit/537.36 (KHTML, like Gecko) draw.io/22.0.2 Chrome/114.0.5735.289 Electron/25.8.4 Safari/537.36" etag="ZNK-t7N5DlH0NXjsHTZw" version="22.0.2" type="device">
  <diagram name="ページ1" id="sp-GEt_gsze2eoHTgXed">
    <mxGraphModel dx="976" dy="723" grid="1" gridSize="10" guides="1" tooltips="1" connect="1" arrows="1" fold="1" page="1" pageScale="1" pageWidth="1169" pageHeight="827" math="0" shadow="0">
      <root>
        <mxCell id="0" />
        <mxCell id="1" parent="0" />
        <mxCell id="zGaoVaXDbv3IWVruUUe7-1" value="frontend" style="rounded=1;whiteSpace=wrap;html=1;arcSize=2;fillColor=none;labelPosition=center;verticalLabelPosition=top;align=center;verticalAlign=bottom;" vertex="1" parent="1">
          <mxGeometry x="190" y="30" width="320" height="770" as="geometry" />
        </mxCell>
        <mxCell id="zGaoVaXDbv3IWVruUUe7-2" value="backend" style="rounded=1;whiteSpace=wrap;html=1;arcSize=2;fillColor=none;labelPosition=center;verticalLabelPosition=top;align=center;verticalAlign=bottom;" vertex="1" parent="1">
          <mxGeometry x="580" y="30" width="320" height="610" as="geometry" />
        </mxCell>
        <mxCell id="zGaoVaXDbv3IWVruUUe7-3" value="mongodb" style="shape=cylinder3;whiteSpace=wrap;html=1;boundedLbl=1;backgroundOutline=1;size=15;labelPosition=center;verticalLabelPosition=bottom;align=center;verticalAlign=top;" vertex="1" parent="1">
          <mxGeometry x="1010" y="250" width="75" height="100" as="geometry" />
        </mxCell>
        <mxCell id="zGaoVaXDbv3IWVruUUe7-7" style="edgeStyle=orthogonalEdgeStyle;rounded=0;orthogonalLoop=1;jettySize=auto;html=1;entryX=0;entryY=0.5;entryDx=0;entryDy=0;entryPerimeter=0;" edge="1" parent="1" target="zGaoVaXDbv3IWVruUUe7-22">
          <mxGeometry relative="1" as="geometry">
            <mxPoint x="510" y="120" as="sourcePoint" />
          </mxGeometry>
        </mxCell>
        <mxCell id="zGaoVaXDbv3IWVruUUe7-4" value="react" style="rounded=1;whiteSpace=wrap;html=1;arcSize=2;fillColor=none;labelPosition=center;verticalLabelPosition=bottom;align=center;verticalAlign=top;" vertex="1" parent="1">
          <mxGeometry x="220" y="230" width="260" height="540" as="geometry" />
        </mxCell>
        <mxCell id="zGaoVaXDbv3IWVruUUe7-5" value="express" style="rounded=1;whiteSpace=wrap;html=1;arcSize=2;fillColor=none;labelPosition=center;verticalLabelPosition=top;align=center;verticalAlign=bottom;" vertex="1" parent="1">
          <mxGeometry x="610" y="55.25" width="260" height="554.75" as="geometry" />
        </mxCell>
        <mxCell id="zGaoVaXDbv3IWVruUUe7-11" style="edgeStyle=orthogonalEdgeStyle;rounded=0;orthogonalLoop=1;jettySize=auto;html=1;entryX=0;entryY=0.5;entryDx=0;entryDy=0;entryPerimeter=0;" edge="1" parent="1" source="zGaoVaXDbv3IWVruUUe7-6" target="zGaoVaXDbv3IWVruUUe7-18">
          <mxGeometry relative="1" as="geometry" />
        </mxCell>
        <mxCell id="zGaoVaXDbv3IWVruUUe7-6" value="" style="image;aspect=fixed;html=1;points=[];align=center;fontSize=12;image=img/lib/azure2/general/Browser.svg;" vertex="1" parent="1">
          <mxGeometry x="20" y="80" width="87.5" height="70" as="geometry" />
        </mxCell>
        <mxCell id="zGaoVaXDbv3IWVruUUe7-8" value="axios" style="text;html=1;strokeColor=none;fillColor=none;align=center;verticalAlign=middle;whiteSpace=wrap;rounded=0;" vertex="1" parent="1">
          <mxGeometry x="520" y="95.25" width="60" height="30" as="geometry" />
        </mxCell>
        <mxCell id="zGaoVaXDbv3IWVruUUe7-9" style="edgeStyle=orthogonalEdgeStyle;rounded=0;orthogonalLoop=1;jettySize=auto;html=1;entryX=0;entryY=0.5;entryDx=0;entryDy=0;entryPerimeter=0;" edge="1" parent="1" source="zGaoVaXDbv3IWVruUUe7-14" target="zGaoVaXDbv3IWVruUUe7-3">
          <mxGeometry relative="1" as="geometry" />
        </mxCell>
        <mxCell id="zGaoVaXDbv3IWVruUUe7-10" value="mongoose" style="text;html=1;strokeColor=none;fillColor=none;align=center;verticalAlign=middle;whiteSpace=wrap;rounded=0;" vertex="1" parent="1">
          <mxGeometry x="910" y="270" width="60" height="30" as="geometry" />
        </mxCell>
        <mxCell id="zGaoVaXDbv3IWVruUUe7-12" value="http" style="text;html=1;strokeColor=none;fillColor=none;align=center;verticalAlign=middle;whiteSpace=wrap;rounded=0;" vertex="1" parent="1">
          <mxGeometry x="120" y="90" width="60" height="30" as="geometry" />
        </mxCell>
        <mxCell id="zGaoVaXDbv3IWVruUUe7-13" value="models" style="rounded=1;whiteSpace=wrap;html=1;arcSize=2;fillColor=none;labelPosition=center;verticalLabelPosition=bottom;align=center;verticalAlign=top;" vertex="1" parent="1">
          <mxGeometry x="640" y="450" width="200" height="120" as="geometry" />
        </mxCell>
        <mxCell id="zGaoVaXDbv3IWVruUUe7-14" value="routes" style="rounded=1;whiteSpace=wrap;html=1;arcSize=2;fillColor=none;labelPosition=center;verticalLabelPosition=bottom;align=center;verticalAlign=top;" vertex="1" parent="1">
          <mxGeometry x="640" y="190" width="200" height="220" as="geometry" />
        </mxCell>
        <mxCell id="zGaoVaXDbv3IWVruUUe7-15" value="pages" style="rounded=1;whiteSpace=wrap;html=1;arcSize=2;fillColor=none;labelPosition=center;verticalLabelPosition=bottom;align=center;verticalAlign=top;" vertex="1" parent="1">
          <mxGeometry x="250" y="330" width="200" height="106" as="geometry" />
        </mxCell>
        <mxCell id="zGaoVaXDbv3IWVruUUe7-16" value="public" style="rounded=1;whiteSpace=wrap;html=1;arcSize=2;fillColor=none;labelPosition=center;verticalLabelPosition=bottom;align=center;verticalAlign=top;" vertex="1" parent="1">
          <mxGeometry x="220" y="55.25" width="260" height="130" as="geometry" />
        </mxCell>
        <mxCell id="zGaoVaXDbv3IWVruUUe7-40" style="edgeStyle=orthogonalEdgeStyle;rounded=0;orthogonalLoop=1;jettySize=auto;html=1;exitX=0.5;exitY=1;exitDx=0;exitDy=0;exitPerimeter=0;" edge="1" parent="1" source="zGaoVaXDbv3IWVruUUe7-18" target="zGaoVaXDbv3IWVruUUe7-39">
          <mxGeometry relative="1" as="geometry" />
        </mxCell>
        <mxCell id="zGaoVaXDbv3IWVruUUe7-18" value="index.html" style="sketch=0;aspect=fixed;pointerEvents=1;shadow=0;dashed=0;html=1;strokeColor=none;labelPosition=center;verticalLabelPosition=top;verticalAlign=bottom;align=center;fillColor=#00188D;shape=mxgraph.azure.file" vertex="1" parent="1">
          <mxGeometry x="250" y="90" width="47" height="50" as="geometry" />
        </mxCell>
        <mxCell id="zGaoVaXDbv3IWVruUUe7-19" value="assets" style="html=1;verticalLabelPosition=bottom;align=center;labelBackgroundColor=#ffffff;verticalAlign=top;strokeWidth=2;strokeColor=#0080F0;shadow=0;dashed=0;shape=mxgraph.ios7.icons.folder;" vertex="1" parent="1">
          <mxGeometry x="360" y="95.25" width="60.77" height="39.5" as="geometry" />
        </mxCell>
        <mxCell id="zGaoVaXDbv3IWVruUUe7-38" style="edgeStyle=orthogonalEdgeStyle;rounded=0;orthogonalLoop=1;jettySize=auto;html=1;exitX=0.25;exitY=0;exitDx=0;exitDy=0;entryX=0.25;entryY=1;entryDx=0;entryDy=0;" edge="1" parent="1" source="zGaoVaXDbv3IWVruUUe7-20" target="zGaoVaXDbv3IWVruUUe7-15">
          <mxGeometry relative="1" as="geometry" />
        </mxCell>
        <mxCell id="zGaoVaXDbv3IWVruUUe7-20" value="components" style="rounded=1;whiteSpace=wrap;html=1;arcSize=2;fillColor=none;labelPosition=center;verticalLabelPosition=bottom;align=center;verticalAlign=top;" vertex="1" parent="1">
          <mxGeometry x="250" y="480" width="200" height="110" as="geometry" />
        </mxCell>
        <mxCell id="zGaoVaXDbv3IWVruUUe7-21" value="state" style="rounded=1;whiteSpace=wrap;html=1;arcSize=2;fillColor=none;labelPosition=center;verticalLabelPosition=bottom;align=center;verticalAlign=top;" vertex="1" parent="1">
          <mxGeometry x="250" y="630" width="200" height="110" as="geometry" />
        </mxCell>
        <mxCell id="zGaoVaXDbv3IWVruUUe7-30" style="edgeStyle=orthogonalEdgeStyle;rounded=1;orthogonalLoop=1;jettySize=auto;html=1;exitX=1;exitY=0.5;exitDx=0;exitDy=0;exitPerimeter=0;" edge="1" parent="1" source="zGaoVaXDbv3IWVruUUe7-22" target="zGaoVaXDbv3IWVruUUe7-14">
          <mxGeometry relative="1" as="geometry" />
        </mxCell>
        <mxCell id="zGaoVaXDbv3IWVruUUe7-22" value="server.js" style="sketch=0;aspect=fixed;pointerEvents=1;shadow=0;dashed=0;html=1;strokeColor=none;labelPosition=center;verticalLabelPosition=bottom;verticalAlign=top;align=center;fillColor=#00188D;shape=mxgraph.azure.file" vertex="1" parent="1">
          <mxGeometry x="640" y="95.25" width="47" height="50" as="geometry" />
        </mxCell>
        <mxCell id="zGaoVaXDbv3IWVruUUe7-23" value="auth.js" style="sketch=0;aspect=fixed;pointerEvents=1;shadow=0;dashed=0;html=1;strokeColor=none;labelPosition=center;verticalLabelPosition=bottom;verticalAlign=top;align=center;fillColor=#00188D;shape=mxgraph.azure.file" vertex="1" parent="1">
          <mxGeometry x="670" y="220" width="47" height="50" as="geometry" />
        </mxCell>
        <mxCell id="zGaoVaXDbv3IWVruUUe7-24" value="posts.js" style="sketch=0;aspect=fixed;pointerEvents=1;shadow=0;dashed=0;html=1;strokeColor=none;labelPosition=center;verticalLabelPosition=bottom;verticalAlign=top;align=center;fillColor=#00188D;shape=mxgraph.azure.file" vertex="1" parent="1">
          <mxGeometry x="760" y="220" width="47" height="50" as="geometry" />
        </mxCell>
        <mxCell id="zGaoVaXDbv3IWVruUUe7-26" value="users.js" style="sketch=0;aspect=fixed;pointerEvents=1;shadow=0;dashed=0;html=1;strokeColor=none;labelPosition=center;verticalLabelPosition=bottom;verticalAlign=top;align=center;fillColor=#00188D;shape=mxgraph.azure.file" vertex="1" parent="1">
          <mxGeometry x="716.5" y="320" width="47" height="50" as="geometry" />
        </mxCell>
        <mxCell id="zGaoVaXDbv3IWVruUUe7-28" value="Post.js" style="sketch=0;aspect=fixed;pointerEvents=1;shadow=0;dashed=0;html=1;strokeColor=none;labelPosition=center;verticalLabelPosition=bottom;verticalAlign=top;align=center;fillColor=#00188D;shape=mxgraph.azure.file" vertex="1" parent="1">
          <mxGeometry x="670" y="480" width="47" height="50" as="geometry" />
        </mxCell>
        <mxCell id="zGaoVaXDbv3IWVruUUe7-29" value="User.js" style="sketch=0;aspect=fixed;pointerEvents=1;shadow=0;dashed=0;html=1;strokeColor=none;labelPosition=center;verticalLabelPosition=bottom;verticalAlign=top;align=center;fillColor=#00188D;shape=mxgraph.azure.file" vertex="1" parent="1">
          <mxGeometry x="760" y="480" width="47" height="50" as="geometry" />
        </mxCell>
        <mxCell id="zGaoVaXDbv3IWVruUUe7-32" value="home.jsx" style="sketch=0;aspect=fixed;pointerEvents=1;shadow=0;dashed=0;html=1;strokeColor=none;labelPosition=center;verticalLabelPosition=bottom;verticalAlign=top;align=center;fillColor=#00188D;shape=mxgraph.azure.file" vertex="1" parent="1">
          <mxGeometry x="270" y="346" width="47" height="50" as="geometry" />
        </mxCell>
        <mxCell id="zGaoVaXDbv3IWVruUUe7-33" value="login.jsx" style="sketch=0;aspect=fixed;pointerEvents=1;shadow=0;dashed=0;html=1;strokeColor=none;labelPosition=center;verticalLabelPosition=bottom;verticalAlign=top;align=center;fillColor=#00188D;shape=mxgraph.azure.file" vertex="1" parent="1">
          <mxGeometry x="340" y="346" width="47" height="50" as="geometry" />
        </mxCell>
        <mxCell id="zGaoVaXDbv3IWVruUUe7-34" value="…" style="text;html=1;strokeColor=none;fillColor=none;align=center;verticalAlign=middle;whiteSpace=wrap;rounded=0;fontSize=18;" vertex="1" parent="1">
          <mxGeometry x="387" y="356" width="60" height="30" as="geometry" />
        </mxCell>
        <mxCell id="zGaoVaXDbv3IWVruUUe7-35" value="sidebar.jsx" style="sketch=0;aspect=fixed;pointerEvents=1;shadow=0;dashed=0;html=1;strokeColor=none;labelPosition=center;verticalLabelPosition=bottom;verticalAlign=top;align=center;fillColor=#00188D;shape=mxgraph.azure.file" vertex="1" parent="1">
          <mxGeometry x="270" y="500" width="47" height="50" as="geometry" />
        </mxCell>
        <mxCell id="zGaoVaXDbv3IWVruUUe7-36" value="timeline.jsx" style="sketch=0;aspect=fixed;pointerEvents=1;shadow=0;dashed=0;html=1;strokeColor=none;labelPosition=center;verticalLabelPosition=bottom;verticalAlign=top;align=center;fillColor=#00188D;shape=mxgraph.azure.file" vertex="1" parent="1">
          <mxGeometry x="340" y="500" width="47" height="50" as="geometry" />
        </mxCell>
        <mxCell id="zGaoVaXDbv3IWVruUUe7-37" value="…" style="text;html=1;strokeColor=none;fillColor=none;align=center;verticalAlign=middle;whiteSpace=wrap;rounded=0;fontSize=18;" vertex="1" parent="1">
          <mxGeometry x="387" y="510" width="60" height="30" as="geometry" />
        </mxCell>
        <mxCell id="zGaoVaXDbv3IWVruUUe7-39" value="index.js" style="sketch=0;aspect=fixed;pointerEvents=1;shadow=0;dashed=0;html=1;strokeColor=none;labelPosition=center;verticalLabelPosition=bottom;verticalAlign=top;align=center;fillColor=#00188D;shape=mxgraph.azure.file" vertex="1" parent="1">
          <mxGeometry x="250" y="250" width="47" height="50" as="geometry" />
        </mxCell>
        <mxCell id="zGaoVaXDbv3IWVruUUe7-41" value="Authxxx.js" style="sketch=0;aspect=fixed;pointerEvents=1;shadow=0;dashed=0;html=1;strokeColor=none;labelPosition=center;verticalLabelPosition=bottom;verticalAlign=top;align=center;fillColor=#00188D;shape=mxgraph.azure.file" vertex="1" parent="1">
          <mxGeometry x="280" y="650" width="47" height="50" as="geometry" />
        </mxCell>
        <mxCell id="zGaoVaXDbv3IWVruUUe7-42" value="…" style="text;html=1;strokeColor=none;fillColor=none;align=center;verticalAlign=middle;whiteSpace=wrap;rounded=0;fontSize=18;" vertex="1" parent="1">
          <mxGeometry x="340" y="660" width="60" height="30" as="geometry" />
        </mxCell>
      </root>
    </mxGraphModel>
  </diagram>
</mxfile>
